<?xml version="1.0" encoding="UTF-8"?><svg id="Layer_1" xmlns="http://www.w3.org/2000/svg" viewBox="0 0 425.2 283.46"><defs><style>.cls-1{fill:#ff4300;}.cls-2{fill:#548687;}</style></defs><path class="cls-1" d="m212.6,18.96C233.45,6.9,257.65,0,283.46,0c0,0-141.73,0-141.73,0C63.46,0,0,63.46,0,141.73s63.46,141.73,141.73,141.73c25.82,0,50.02-6.9,70.87-18.96-42.36-24.51-70.87-70.31-70.87-122.77s28.5-98.26,70.87-122.77Z"/><path class="cls-2" d="m283.46,283.46c-25.82,0-50.02-6.9-70.87-18.96,42.36-24.51,70.87-70.31,70.87-122.77h141.73c0,78.28-63.46,141.73-141.73,141.73Z"/></svg>